# xmcd
#
# Track frame offsets: 
#        150
#        14970
#        38209
#        74177
#        99386
#        122965
#        144835
#        178275
#        197327
#        223974
#        244720
#        261005
#        280403
#        292307
#
# Disc length: 4057 seconds
#
# Revision: 0
# Processed by: cddbd v1.5.2PL0 Copyright (c) Steve Scherf et al.
# Submitted via: ExactAudioCopy v0.99pb4
#
DISCID=ed0fd70e
DTITLE=Various Artist - Don't Stop: Recording Tap
DYEAR=2008
DGENRE=Soul
TTITLE0=Arnie Love and The Lovelettes/Breakout
TTITLE1=Jackie Stoudemire/Invisible Wind
TTITLE2=Missy Dee and The Melody Crew/Missy Missy Dee
TTITLE3=Arnie Love and The Lovelettes/We Had Enough
TTITLE4=Jackie Stoudemire/Guilty
TTITLE5=Annette Denvil/So Nice
TTITLE6=Fabulous 3 MCs/Rub A Dub Dub
TTITLE7=Jackie Stoudemire/Don't Stop Dancin'
TTITLE8=Arnie Love and The Lovelettes/Stop And Make Up Your Mind
TTITLE9=Jackie Stoudemire/Run Away, Hide From Love
TTITLE10=Magnetism/Breakout
TTITLE11=Arnie Love and The Lovelettes/Invisible Wind
TTITLE12=Bonnie Freeman/Does He Really Mean It
TTITLE13=Bonnie Freeman/Love Which Way
EXTD=Sean P.
EXTT0=
EXTT1=
EXTT2=
EXTT3=
EXTT4=
EXTT5=
EXTT6=
EXTT7=
EXTT8=
EXTT9=
EXTT10=
EXTT11=
EXTT12=
EXTT13=
PLAYORDER=
